<svg width="22" height="23" viewBox="0 0 22 23" fill="none" xmlns="http://www.w3.org/2000/svg">
<path d="M20.9477 16.8592V19.8592C20.9488 20.1377 20.8918 20.4134 20.7802 20.6686C20.6686 20.9237 20.505 21.1528 20.2998 21.3411C20.0945 21.5294 19.8523 21.6727 19.5884 21.7619C19.3246 21.8512 19.0451 21.8843 18.7677 21.8592C15.6905 21.5249 12.7347 20.4734 10.1377 18.7892C7.72151 17.2539 5.67302 15.2054 4.13768 12.7892C2.44766 10.1804 1.39593 7.21022 1.06768 4.11922C1.04269 3.84269 1.07556 3.56398 1.16418 3.30085C1.25281 3.03771 1.39525 2.79591 1.58245 2.59084C1.76965 2.38577 1.99749 2.22193 2.25148 2.10974C2.50546 1.99756 2.78002 1.93948 3.05768 1.93922H6.05768C6.54299 1.93445 7.01348 2.1063 7.38145 2.42275C7.74942 2.73921 7.98976 3.17867 8.05768 3.65922C8.18431 4.61929 8.41913 5.56195 8.75768 6.46922C8.89223 6.82715 8.92135 7.21614 8.84159 7.5901C8.76184 7.96407 8.57655 8.30733 8.30768 8.57922L7.03768 9.84922C8.46124 12.3528 10.5341 14.4257 13.0377 15.8492L14.3077 14.5792C14.5796 14.3104 14.9228 14.1251 15.2968 14.0453C15.6708 13.9656 16.0598 13.9947 16.4177 14.1292C17.325 14.4678 18.2676 14.7026 19.2277 14.8292C19.7135 14.8978 20.1571 15.1424 20.4742 15.5167C20.7913 15.891 20.9599 16.3688 20.9477 16.8592Z" stroke="black" stroke-width="2" stroke-linecap="round" stroke-linejoin="round"/>
</svg>
